<svg xmlns="http://www.w3.org/2000/svg"  viewBox="0 0 100 100" width="100px" height="100px"><path fill="#ee3e54" d="M13 27A2 2 0 1 0 13 31A2 2 0 1 0 13 27Z"/><path fill="#f1bc19" d="M77 12A1 1 0 1 0 77 14A1 1 0 1 0 77 12Z"/><path fill="#fce0a2" d="M50 13A37 37 0 1 0 50 87A37 37 0 1 0 50 13Z"/><path fill="#f1bc19" d="M83 11A4 4 0 1 0 83 19A4 4 0 1 0 83 11Z"/><path fill="#ee3e54" d="M87 22A2 2 0 1 0 87 26A2 2 0 1 0 87 22Z"/><path fill="#fbcd59" d="M81 74A2 2 0 1 0 81 78 2 2 0 1 0 81 74zM15 59A4 4 0 1 0 15 67 4 4 0 1 0 15 59z"/><path fill="#ee3e54" d="M25 85A2 2 0 1 0 25 89A2 2 0 1 0 25 85Z"/><path fill="#fff" d="M18.5 51A2.5 2.5 0 1 0 18.5 56A2.5 2.5 0 1 0 18.5 51Z"/><path fill="#f1bc19" d="M21 66A1 1 0 1 0 21 68A1 1 0 1 0 21 66Z"/><path fill="#fff" d="M80 33A1 1 0 1 0 80 35A1 1 0 1 0 80 33Z"/><g><path fill="#6673a7" d="M44.385,75.3c-0.25,0-0.454-0.203-0.454-0.452V52.256h-8.777c-0.25,0-0.454-0.202-0.454-0.451 v-8.065c0-0.249,0.204-0.452,0.454-0.452h8.777v-8.342c0-7.041,4.112-11.245,11.001-11.245c2.653,0,6.285,0.187,7.951,0.305 c0.234,0.017,0.417,0.214,0.417,0.45v7.763c0,0.249-0.204,0.451-0.454,0.451h-5.77c-2.294,0-4.162,1.865-4.162,4.157v6.461h9.931 c0.177,0,0.289,0.095,0.339,0.151c0.05,0.056,0.131,0.176,0.112,0.351l-0.898,8.064c-0.025,0.229-0.219,0.402-0.451,0.402h-9.033 v22.592c0,0.249-0.204,0.452-0.454,0.452H44.385z"/><path fill="#472b29" d="M54.932,24.4c2.526,0,5.929,0.169,7.668,0.287v7.283h-5.523c-2.681,0-4.862,2.179-4.862,4.857 v5.761v1.4h1.4h8.956l-0.843,7.57h-8.113h-1.4v1.4V74.6h-7.585V52.957v-1.4h-1.4H35.4v-7.57h7.831h1.4v-1.4v-7.641 C44.631,28.244,48.385,24.4,54.932,24.4 M54.932,23c-7.086,0-11.701,4.24-11.701,11.946v7.641h-8.077 c-0.637,0-1.154,0.516-1.154,1.152v8.065c0,0.636,0.517,1.152,1.154,1.152h8.077v21.891c0,0.636,0.517,1.152,1.154,1.152h8.077 c0.637,0,1.154-0.516,1.154-1.152V52.957h8.333c0.588,0,1.082-0.441,1.147-1.025l0.898-8.065c0.076-0.682-0.459-1.279-1.147-1.279 h-9.231v-5.761c0-1.909,1.55-3.457,3.462-3.457h5.769c0.637,0,1.154-0.516,1.154-1.152v-7.762c0-0.604-0.465-1.106-1.067-1.149 C61.097,23.176,57.511,23,54.932,23L54.932,23z"/></g><g><path fill="#472b29" d="M49.5,73c-0.276,0-0.5-0.224-0.5-0.5v-21c0-0.276,0.224-0.5,0.5-0.5s0.5,0.224,0.5,0.5v21 C50,72.776,49.776,73,49.5,73z"/></g><g><path fill="#472b29" d="M56.073,30.015c-0.241,0-0.454-0.175-0.493-0.42c-0.044-0.273,0.141-0.529,0.414-0.573 c1.114-0.181,2.377-0.271,3.756-0.271c0.276,0,0.5,0.224,0.5,0.5s-0.224,0.5-0.5,0.5c-1.325,0-2.535,0.087-3.597,0.258 C56.126,30.013,56.1,30.015,56.073,30.015z"/></g><g><path fill="#472b29" d="M49.5,44.25c-0.276,0-0.5-0.224-0.5-0.5v-7.931c0-2.214,0.842-3.94,2.502-5.132 c0.224-0.162,0.537-0.111,0.698,0.115c0.161,0.224,0.109,0.536-0.115,0.697C50.682,32.507,50,33.919,50,35.819v7.931 C50,44.026,49.776,44.25,49.5,44.25z"/></g></svg>